<svg width="1280" height="1280" viewBox="0 0 1280 1280" fill="none" xmlns="http://www.w3.org/2000/svg">
<g clip-path="url(#clip0_37_4766)">
<path d="M667.893 72.8329H700.436L719.031 77.4818L743.826 89.8789L759.322 102.276L770.17 114.673L779.467 130.169L787.216 150.315L790.315 167.361V189.056L787.216 207.651L779.467 226.247L770.17 241.743L756.223 257.24L746.925 268.087H743.826L740.726 274.286L729.879 285.133L723.68 292.881L719.031 306.828L720.581 322.324L725.23 331.622V334.721L731.429 337.821L743.826 345.569L751.574 347.119V367.264L750.024 385.86L745.375 387.409L720.581 379.661L711.283 373.462L717.482 382.76L731.429 401.356L740.726 416.852L748.475 432.349L759.322 464.891L763.971 491.235V531.525L759.322 560.969L750.024 588.862L743.826 602.809L759.322 591.961L782.567 576.465L793.414 573.366H815.109L830.605 579.564L844.552 591.961L852.3 607.458L853.85 626.053L863.148 630.702L873.995 641.55L877.094 653.947L875.545 669.443L869.346 681.84L873.995 680.291H887.942L898.789 686.489L904.988 695.787L908.087 705.085V715.932L903.438 729.879L898.789 740.726H911.187L920.484 745.375L928.232 754.673L929.782 770.169L922.034 784.116L925.133 790.315H929.782L943.729 774.818L965.424 751.574L984.019 732.978L999.516 726.78H1018.11L1028.96 731.429V734.528L1036.71 737.627L1042.91 743.826L1126.59 804.261L1145.18 818.208L1135.88 830.605L1114.19 852.3L1112.64 855.399H1109.54L1106.44 861.598L1084.75 883.293L1073.9 895.69L1059.95 909.637L1049.1 922.034L1032.06 939.08L1021.21 951.477L1004.16 968.523L1002.62 971.622H999.516L996.417 977.821L977.821 996.416L966.973 1008.81L949.927 1025.86L939.08 1038.26L926.683 1050.65L923.584 1055.3H920.484L917.385 1061.5L903.438 1075.45L895.69 1067.7L867.797 1033.61L847.651 1008.81L816.659 970.073L808.91 962.324L804.262 953.027L801.162 937.53L787.216 954.576L777.918 966.973H774.818L771.719 973.172L757.772 988.668L745.375 999.516L736.078 1007.26H732.978L729.879 1013.46L726.78 1015.01L719.031 1028.96L708.184 1044.46L675.642 1094.04L664.794 1111.09L643.099 1142.08L641.55 1146.73H638.45L635.351 1156.03L615.206 1185.47L613.656 1190.12H610.557L607.458 1197.87L596.61 1213.37L578.015 1242.81L565.617 1261.4L557.869 1269.15L551.671 1278.45H500.533L503.632 1276.9L506.731 1269.15L519.128 1255.21L531.525 1238.16L543.923 1222.66L548.571 1214.92L560.969 1200.97L567.167 1190.12H570.266L573.366 1182.37L581.114 1173.08L582.663 1168.43H585.763V1165.33H588.862L591.961 1157.58L609.007 1135.88L613.656 1128.14H616.755L619.855 1120.39L622.954 1115.74H626.053L629.153 1107.99L643.099 1090.94L655.496 1073.9L667.893 1058.4L672.542 1050.65L686.489 1033.61L697.337 1018.11L706.634 1007.26H709.734V1004.16L717.482 999.516H722.131V996.416L740.726 982.47L746.925 979.37V976.271L751.574 971.622L762.421 959.225L779.467 940.63L790.315 928.232L794.964 925.133L799.613 917.385H802.712L805.811 911.186L822.857 892.591L827.506 886.392H830.605V883.293H833.705L835.254 877.094L843.002 867.797L850.751 861.598L852.3 858.499H855.4L858.499 852.3L878.644 830.605L889.492 816.659L898.789 805.811V796.513L892.591 784.116V781.017L873.995 771.719L860.048 768.62L858.499 762.421L856.949 748.475L850.751 734.528L839.903 725.23L819.758 719.031L815.109 711.283L807.361 689.588L799.613 681.84L784.116 674.092L770.17 669.443L763.971 643.099L754.673 630.702L739.177 624.504L729.879 622.954L719.031 626.053L708.184 636.901L701.986 640L680.291 664.794H677.191L674.092 672.542L657.046 691.138H653.947L650.848 697.337L640 708.184L635.351 715.932H632.252L629.153 723.68L626.053 720.581L622.954 722.131L626.053 714.383L630.702 712.833L632.252 705.085L635.351 700.436L627.603 701.985L613.656 706.634L587.312 711.283H542.373L516.029 706.634L488.136 697.337L463.341 684.939L446.295 674.092L438.547 669.443L447.845 689.588L449.395 703.535L416.852 708.184L410.654 706.634L404.455 691.138L393.608 681.84L381.211 677.191H367.264L354.867 683.39L345.569 691.138L334.722 703.535L323.874 714.383L320.775 719.031H317.676V722.131L305.278 732.978L291.332 742.276L278.935 748.475L264.988 753.123L255.69 754.673H221.598L203.002 750.024L187.506 743.826L170.46 732.978L159.613 720.581L150.315 709.734L141.017 692.688L134.818 675.642L133.269 669.443V629.153L141.017 604.358L151.864 585.763L175.109 560.969L179.758 554.77H182.857V551.671H185.956L189.056 545.472L209.201 525.327L213.85 517.579L206.102 514.479L190.605 503.632L172.01 491.235L168.91 486.586V477.288L179.758 464.891L193.705 450.944L195.254 447.845H198.354L201.453 441.646L213.85 427.7H216.949L220.048 421.501H223.148L226.247 415.303L246.392 395.157L257.24 382.76L271.186 368.814L282.034 356.416L292.881 345.569L303.729 333.172L314.576 322.324L319.225 316.126H322.324L325.424 309.927L354.867 280.484L365.714 268.087L384.31 247.942L409.104 223.148L419.952 210.751L427.7 201.453H430.799V198.353H433.898L436.998 192.155L460.242 168.91L461.792 165.811H464.891L467.99 159.613L478.838 148.765L480.387 145.666H483.487L486.586 139.467L506.731 119.322L516.029 117.772L526.877 127.07L537.724 142.567L551.671 161.162L559.419 154.964L570.266 142.567L587.312 125.521L598.16 113.123L616.755 94.5278L633.802 83.6803L653.947 75.9322L667.893 72.8329Z" fill="#F5BF57"/>
<path d="M667.893 72.8329H700.436L719.032 77.4818L743.826 89.8789L759.322 102.276L770.17 114.673L779.467 130.169L787.216 150.315L790.315 167.361V189.056L787.216 207.651L779.467 226.247L770.17 241.743L756.223 257.24L746.925 268.087H743.826L740.726 274.286L729.879 285.133L723.68 292.881L719.032 306.828L720.581 322.324L725.23 331.622V334.722L731.429 337.821L743.826 345.569L751.574 347.119V367.264L750.024 385.86L745.375 387.409L720.581 379.661L711.283 373.462L717.482 382.76L731.429 401.356L740.726 416.852L748.475 432.349L759.322 464.891L763.971 491.235V531.525L759.322 560.968L750.024 588.862L743.826 602.809L759.322 591.961L782.567 576.465L793.414 573.366H815.109L830.605 579.564L844.552 591.961L852.3 607.458L853.85 626.053L863.148 630.702L873.995 641.55L877.094 653.947L875.545 669.443L869.346 681.84L873.995 680.291H887.942L898.789 686.489L904.988 695.787L908.087 705.085V715.932L903.438 729.879L898.789 740.726H911.186L920.484 745.375L928.232 754.673L929.782 770.169L922.034 784.116L925.133 790.315H929.782L943.729 774.818L965.424 751.574L984.019 732.978L999.516 726.78H1018.11L1028.96 731.429V734.528L1036.71 737.627L1042.91 743.826L1126.59 804.261L1145.18 818.208L1135.88 830.605L1114.19 852.3L1112.64 855.399H1109.54L1106.44 861.598L1084.75 883.293L1073.9 895.69L1059.95 909.637L1049.1 922.034L1032.06 939.08L1021.21 951.477L1004.16 968.523L1002.62 971.622H999.516L996.417 977.821L977.821 996.416L966.973 1008.81L949.927 1025.86L939.08 1038.26L926.683 1050.65L923.584 1055.3H920.484L917.385 1061.5L903.438 1075.45L895.69 1067.7L867.797 1033.61L847.651 1008.81L816.659 970.073L808.91 962.324L804.262 953.027L801.162 937.53L787.216 954.576L777.918 966.973H774.818L771.719 973.172L757.772 988.668L745.375 999.516L736.078 1007.26H732.978L729.879 1013.46L726.78 1015.01L719.032 1028.96L708.184 1044.46L675.642 1094.04L664.794 1111.09L643.099 1142.08L641.55 1146.73H638.45L635.351 1156.03L615.206 1185.47L613.656 1190.12H610.557L607.458 1197.87L596.61 1213.37L578.015 1242.81L565.617 1261.4L557.869 1269.15L551.671 1278.45H500.533L503.632 1276.9L506.731 1269.15L519.128 1255.21L531.525 1238.16L543.923 1222.66L548.571 1214.92L560.969 1200.97L567.167 1190.12H570.266L573.366 1182.37L581.114 1173.08L582.663 1168.43H585.763V1165.33H588.862L591.961 1157.58L609.007 1135.88L613.656 1128.14H616.755L619.855 1120.39L622.954 1115.74H626.053L629.153 1107.99L643.099 1090.94L655.496 1073.9L667.893 1058.4L672.542 1050.65L686.489 1033.61L697.337 1018.11L706.634 1007.26H709.734V1004.16L717.482 999.516H722.131V996.416L740.726 982.47L746.925 979.37V976.271L751.574 971.622L762.421 959.225L779.467 940.63L790.315 928.232L794.964 925.133L799.613 917.385H802.712L805.811 911.186L822.857 892.591L827.506 886.392H830.605V883.293H833.705L835.254 877.094L843.002 867.797L850.751 861.598L852.3 858.499H855.4L858.499 852.3L878.644 830.605L889.492 816.659L898.789 805.811V796.513L892.591 784.116V781.017L873.995 771.719L860.048 768.62L858.499 762.421L856.949 748.475L850.751 734.528L839.903 725.23L819.758 719.031L815.109 711.283L807.361 689.588L799.613 681.84L784.116 674.092L770.17 669.443L763.971 643.099L754.673 630.702L739.177 624.504L729.879 622.954L719.032 626.053L708.184 636.901L701.986 640L680.291 664.794H677.191L674.092 672.542L657.046 691.138H653.947L650.847 697.337L640 708.184L635.351 715.932H632.252L629.153 723.68L626.053 720.581L622.954 722.131L626.053 714.383L630.702 712.833L632.252 705.085L635.351 700.436L627.603 701.985L613.656 706.634L587.312 711.283H542.373L533.075 706.634L520.678 705.085L509.831 701.985L506.731 694.237V670.993V664.794V647.748L514.479 649.298L516.029 655.496L517.579 653.947H528.426L547.022 663.245L557.869 670.993L567.167 675.642H573.366V678.741L582.663 675.642L584.213 672.542H587.312L593.511 667.893L595.061 657.046L590.412 653.947L581.114 655.496L576.465 660.145L574.915 669.443L571.816 672.542L559.419 670.993V669.443H567.167L571.816 647.748L576.465 641.55L581.114 630.702L584.213 626.053V613.656H581.114L576.465 599.709L574.915 593.511L568.717 590.412L562.518 584.213L568.717 578.014L585.763 568.717L602.809 554.77L616.755 537.724L629.153 516.029L635.351 495.884L638.45 472.639L636.901 446.295L630.702 423.051L622.954 406.005L613.656 392.058V388.959H610.557V385.86L605.908 384.31V371.913L610.557 356.416L621.404 347.119L627.603 344.019L629.153 340.92L630.702 323.874V309.927L629.153 291.332L635.351 292.881L636.901 295.981L641.55 297.53L638.45 292.881L632.252 285.133L629.153 275.835L626.053 274.286L632.252 271.186L640 278.935L667.893 316.126L680.291 333.172L683.39 337.821V330.073H680.291L678.741 322.324V299.08L683.39 283.583L689.588 271.186L698.886 258.789L714.383 243.293L715.932 240.194H719.032L720.581 235.545L729.879 227.797L742.276 210.751L748.475 193.705L750.024 173.559L746.925 158.063L740.726 144.116L729.879 130.169L714.383 119.322L697.337 113.123H672.542L653.947 119.322L640 128.62L609.007 159.613L598.16 172.01L591.961 179.758L584.213 184.407H581.114V187.506H576.465V192.155H571.816L570.266 185.956L564.068 179.758L556.32 170.46V165.811L559.419 159.613L565.617 150.315L574.915 141.017H578.015L581.114 134.818L585.763 127.07L599.709 111.574L616.755 94.5278L633.801 83.6803L653.947 75.9322L667.893 72.8329Z" fill="#F29B38"/>
<path d="M729.879 621.404L748.475 626.053L757.773 632.252L765.521 643.099L770.17 664.794V669.443L788.765 674.092L804.262 683.39L810.46 694.237L818.208 715.932L833.705 722.131L844.552 726.78V729.879L850.751 732.978L856.949 743.826L860.049 753.123V768.62L873.995 770.169L886.392 776.368L894.141 784.116L900.339 796.513V805.811L886.392 821.308L875.545 835.254L856.949 855.4L855.4 858.499H852.3L849.201 864.697L843.003 867.797L839.903 873.995L835.254 878.644L833.705 883.293H830.605V886.392H827.506L824.407 892.591L812.01 904.988L802.712 917.385L798.063 920.484L794.964 926.683L782.567 937.53L771.719 949.927L757.773 965.424L750.024 976.271H746.925V979.37L725.23 996.416H722.131V999.516L712.833 1004.16H709.734V1007.26H706.635L703.535 1013.46L694.237 1024.31L684.94 1036.71L672.543 1052.2L663.245 1066.15L646.199 1087.85L636.901 1100.24L626.053 1115.74H622.954L619.855 1123.49L616.756 1128.14H613.656L610.557 1135.88L593.511 1157.58L588.862 1165.33H585.763V1168.43H582.664L581.114 1174.62L571.816 1187.02L570.266 1190.12H567.167L564.068 1197.87L553.22 1211.82L547.022 1218.01L540.823 1228.86L525.327 1247.46L512.93 1264.5L503.632 1276.9H551.671L562.518 1261.4V1266.05L553.22 1280H285.133L286.683 1273.8L300.63 1256.76L303.729 1252.11H306.828L309.927 1245.91L320.775 1231.96L323.874 1227.31H326.973L330.073 1219.56L345.569 1202.52L356.417 1188.57L376.562 1163.78L388.959 1148.28L406.005 1128.14L423.051 1106.44L444.746 1080.1L461.792 1058.4L475.739 1041.36L485.036 1028.96L492.785 1021.21L506.731 1004.16L523.777 982.47L537.724 965.424L550.121 949.927L567.167 929.782L582.664 909.637L590.412 898.789L588.862 867.797L587.312 846.102V812.01L591.961 785.666L601.259 756.223L609.007 739.177L622.954 714.383L630.702 703.535V698.886L636.901 700.436L632.252 706.634V714.383H627.603L626.053 719.031L629.153 722.131L632.252 715.932L636.901 712.833L640 706.634L643.099 703.535L644.649 700.436L652.397 694.237L660.145 686.489L674.092 670.993L677.191 664.794L698.886 643.099L703.535 636.901L711.283 632.252L722.131 622.954L729.879 621.404Z" fill="#F3C094"/>
<path d="M1033.61 739.177L1041.36 742.276L1066.15 760.872L1092.49 779.467L1145.18 818.208L1135.88 830.605L1114.19 852.3L1112.64 855.4H1109.54L1106.44 861.598L1084.75 883.293L1073.9 895.69L1059.95 909.637L1049.1 922.034L1032.06 939.08L1021.21 951.477L1004.16 968.523L1002.61 971.622H999.516L996.416 977.821L977.821 996.416L966.973 1008.81L949.927 1025.86L939.08 1038.26L926.683 1050.65L923.584 1055.3H920.484L917.385 1061.5L903.438 1075.45L895.69 1067.7L867.797 1033.61L847.651 1008.81L816.659 970.073L819.758 963.874L841.453 942.179L852.3 929.782L866.247 915.835L877.094 903.438L891.041 889.492L901.889 877.094L922.034 856.949L923.584 853.85H926.683L929.782 847.651L949.927 827.506L960.775 815.109L976.271 799.613L987.119 787.215L1004.16 770.169L1005.71 767.07H1008.81V763.971H1011.91L1015.01 757.772L1033.61 739.177Z" fill="#3E3563"/>
<path d="M793.414 573.366H815.109L830.605 579.564L844.552 591.961L852.3 607.458L853.85 626.053L863.148 630.702L873.995 641.55L877.094 653.947L875.545 669.443L869.346 681.84L873.995 680.291H887.942L898.789 686.489L904.988 695.787L908.087 705.085V715.932L903.438 729.879L898.789 740.726H911.186L920.484 745.375L928.232 754.673L929.782 770.169L922.034 784.116L925.133 790.315H929.782L943.729 774.818L965.424 751.574L984.019 732.978L999.516 726.78H1018.11L1028.96 731.429V734.528L1036.71 737.627L1013.46 760.872L1011.91 763.971H1008.81V767.07H1005.71L1002.62 773.269L979.37 796.513L968.523 808.91L953.027 824.407L942.179 836.804L928.232 850.751L926.683 853.85H923.584L920.484 860.048L898.789 881.743L895.69 886.392H892.591L889.492 892.591L869.346 912.736L858.499 925.133L844.552 939.08L833.705 951.477L816.659 968.523L810.46 965.424L804.262 953.027L801.162 937.53L787.216 954.576L777.918 966.973H774.818L771.719 973.172L757.772 988.668L745.375 999.516L736.077 1007.26H732.978L729.879 1013.46L726.78 1015.01L719.031 1028.96L708.184 1044.46L675.642 1094.04L664.794 1111.09L643.099 1142.08L641.55 1146.73H638.45L635.351 1156.03L615.206 1185.47L613.656 1190.12H610.557L607.458 1197.87L596.61 1213.37L578.015 1242.81L565.617 1261.4L557.869 1269.15L551.671 1278.45H500.533L503.632 1276.9L506.731 1269.15L519.128 1255.21L531.525 1238.16L543.923 1222.66L548.571 1214.92L560.969 1200.97L567.167 1190.12H570.266L573.366 1182.37L581.114 1173.08L582.663 1168.43H585.763V1165.33H588.862L591.961 1157.58L609.007 1135.88L613.656 1128.14H616.755L619.855 1120.39L622.954 1115.74H626.053L629.153 1107.99L643.099 1090.94L655.496 1073.9L667.893 1058.4L672.542 1050.65L686.489 1033.61L697.337 1018.11L706.634 1007.26H709.734V1004.16L717.482 999.516H722.131V996.416L740.726 982.47L746.925 979.37V976.271L751.574 971.622L762.421 959.225L779.467 940.63L790.315 928.232L794.964 925.133L799.613 917.385H802.712L805.811 911.186L822.857 892.591L827.506 886.392H830.605V883.293H833.705L835.254 877.094L843.002 867.797L850.751 861.598L852.3 858.499H855.4L858.499 852.3L878.644 830.605L889.492 816.659L898.789 805.811V796.513L892.591 784.116V781.017L873.995 771.719L860.048 768.62L858.499 762.421L856.949 748.475L850.751 734.528L839.903 725.23L819.758 719.031L815.109 711.283L807.361 689.588L799.613 681.84L784.116 674.092L770.17 669.443L763.971 643.099L754.673 630.702L739.177 624.504L723.68 622.954L728.329 621.404L729.879 615.206L737.627 607.458L743.826 599.709V602.809L759.322 591.961L782.567 576.465L793.414 573.366Z" fill="#EDA26B"/>
<path d="M478.838 323.874H506.731L529.976 330.073L545.472 336.271L556.32 342.47L559.419 350.218L557.869 357.966L545.472 368.814L543.923 365.714L537.724 362.615L531.525 361.065L525.327 364.165L522.228 370.363L519.128 373.462L512.93 376.562L508.281 385.86H505.182L502.082 392.058L491.235 402.906L489.685 406.005H486.586L483.487 412.203L474.189 421.501H471.09L467.99 427.7L463.341 433.898H460.242L458.693 438.547H455.593L452.494 444.746L446.295 452.494H443.196V455.593H440.097V458.692L432.349 466.441L421.501 478.838L412.203 488.136L415.303 494.334L424.6 502.082V505.182H427.7V508.281H430.799V511.38L440.097 512.93L446.295 505.182H449.395L452.494 498.983L463.341 489.685L474.189 477.288L483.487 466.441L503.632 446.295L512.93 440.097L520.678 429.249H525.327L528.426 421.501L533.075 426.15L531.525 438.547L523.777 441.646L522.228 460.242L516.029 467.99H512.93V471.09L505.182 475.738L495.884 489.685L486.586 497.433L485.036 500.533H481.937L478.838 508.281L480.387 514.479L492.785 526.877L502.082 534.625L511.38 536.174L519.128 539.274L525.327 550.121L540.823 565.617L545.472 567.167V570.266L550.121 571.816L551.671 582.663L537.724 587.312H495.884L471.09 579.564L444.746 565.617L433.898 556.32V553.22L427.7 550.121L412.203 534.625L409.104 533.075V529.976L402.906 526.877L393.608 516.029L384.31 500.533L375.012 477.288L371.913 463.341V419.952L378.111 404.455L385.86 385.86L401.356 364.165L410.654 354.867H413.753V351.768L429.249 340.92L447.845 331.622L463.341 326.973L478.838 323.874Z" fill="#FADE75"/>
<path d="M672.542 111.574H697.337L717.482 119.322L732.978 131.719L743.826 145.666L750.024 162.712L751.574 182.857L746.925 204.552L736.077 221.598L723.68 235.545L719.031 240.194H715.932L712.833 246.392L695.787 263.438L688.039 277.385L681.84 292.881L680.291 299.08V330.073H683.39L684.939 339.37L677.191 331.622L664.794 314.576L650.847 295.981L633.801 272.736L613.656 246.392L591.961 216.949L576.465 195.254L582.663 185.956L593.511 176.659L604.358 164.262L618.305 148.765L643.099 123.971L661.695 114.673L672.542 111.574Z" fill="#020617"/>
<path d="M247.942 542.373L255.69 545.472L344.019 604.358L361.065 615.206L392.058 636.901L387.409 638.45H362.615L347.119 643.099L331.622 650.847L313.027 667.893L299.08 683.39L297.53 686.489H294.431L291.332 692.688L272.736 708.184L251.041 715.932H227.797L207.651 709.734L190.605 697.337L179.758 683.39L173.559 669.443L172.01 661.695V635.351L179.758 615.206L190.605 601.259L209.201 582.663L220.049 570.266H223.148L226.247 564.068L243.293 545.472L247.942 542.373Z" fill="#020617"/>
<path d="M793.414 573.366H815.109L830.605 579.564L844.552 591.961L852.3 607.458L853.85 626.053L863.148 630.702L873.995 641.55L877.094 653.947L875.545 669.443L869.346 681.84L873.995 680.291H887.942L898.789 686.489L904.988 695.787L908.087 705.085V715.932L903.438 729.879L898.789 740.726V743.826L889.492 750.024L873.995 763.971H870.896V767.07L860.048 768.62L858.499 762.421L856.949 748.475L850.751 734.528L839.903 725.23L819.758 719.031L815.109 711.283L807.361 689.588L799.613 681.84L784.116 674.092L770.17 669.443L763.971 643.099L754.673 630.702L739.177 624.504L723.68 622.954L728.329 621.404L729.879 615.206L737.627 607.458L743.826 599.709V602.809L759.322 591.961L782.567 576.465L793.414 573.366Z" fill="#EDA169"/>
<path d="M319.225 316.126H322.324L319.225 322.324L299.08 342.47L297.53 347.119L306.828 357.966L319.225 368.814L325.424 376.562L334.722 384.31V387.409H339.37L344.019 393.608L342.47 406.005L336.271 413.753L331.622 429.249L323.874 438.547L320.775 446.295H313.027L308.378 469.54L314.576 485.036V491.235L308.378 492.785L297.53 488.136L289.782 481.937L285.133 480.387V477.288L277.385 474.189V471.09L269.637 469.54L244.843 454.044L235.545 447.845L227.797 443.196L215.4 433.898L204.552 443.196L199.903 449.395H196.804L193.705 455.593L175.109 474.189L172.01 480.387V488.136L181.307 491.235L182.857 494.334L190.605 495.884L198.354 506.731L190.605 503.632L172.01 491.235L168.91 486.586V477.288L179.758 464.891L193.705 450.944L195.254 447.845H198.354L201.453 441.646L213.85 427.7H216.949L220.048 421.501H223.148L226.247 415.303L246.392 395.157L257.24 382.76L271.186 368.814L282.034 356.416L292.881 345.569L303.729 333.172L314.576 322.324L319.225 316.126Z" fill="#FADE76"/>
<path d="M999.516 726.78H1018.11L1028.96 731.429V734.528L1036.71 737.627L1013.46 760.872L1011.91 763.971H1008.81V767.07H1005.71L1002.61 773.269L979.37 796.513L968.523 808.91L953.027 824.407L946.828 832.155L937.53 833.705L931.332 830.605L929.782 827.506H926.683V832.155H931.332L932.881 836.804L929.782 843.002L923.583 841.453L917.385 838.354L915.835 846.102L912.736 850.751L917.385 852.3L914.286 856.949L908.087 858.499L903.438 866.247L895.69 869.346L891.041 877.094L883.293 875.545V881.743L886.392 883.293H883.293L880.194 892.591H875.545V889.492L870.896 891.041L866.247 900.339L860.048 901.889L853.85 897.24L856.949 892.591H861.598L864.697 884.843L870.896 883.293L869.346 872.446L872.445 867.797L861.598 869.346L860.048 875.545L850.751 878.644L849.201 886.392L844.552 884.843L850.751 875.545L855.399 869.346L860.048 861.598L873.995 849.201L881.743 841.453L895.69 822.857L898.789 818.208L906.537 813.559L911.186 812.01V808.91L917.385 807.361V802.712L925.133 794.964L922.034 788.765L928.232 791.864L945.278 773.269L963.874 753.123L984.019 732.978L999.516 726.78Z" fill="#F5BD56"/>
<path d="M531.525 359.516L537.724 361.065L543.923 365.714L548.571 373.462L559.419 384.31L554.77 392.058L534.625 412.203L523.777 424.6H520.678V427.7L512.93 435.448L505.182 441.646L500.533 447.845L497.433 454.044L486.586 466.441H483.487L480.387 472.639L467.99 486.586H464.891L461.792 492.785L450.944 502.082L449.395 505.182H446.295L443.196 511.38L440.097 514.479L433.898 512.93L430.799 511.38V508.281H427.7V505.182H424.601V502.082L418.402 498.983L410.654 491.235L413.753 485.036L426.15 471.09L432.349 464.891L436.998 458.693H440.097V455.593H443.196V452.494H446.295L449.395 446.295L455.593 438.547L461.792 432.349L466.441 430.799L469.54 424.6L477.288 416.852L486.586 406.005H489.685L492.785 399.806L503.632 388.959L508.281 382.76L511.38 381.211L512.93 375.012L522.228 368.814L529.976 361.065L531.525 359.516Z" fill="#F7B059"/>
<path d="M929.782 825.956L931.332 830.605L939.08 832.155H945.278L926.683 853.85H923.584L920.484 860.048L898.789 881.743L895.69 886.392H892.591L889.492 892.591L869.346 912.736L858.499 925.133L844.552 939.08L833.705 951.477L816.659 968.523L810.46 965.424L805.811 957.676V932.881L810.46 920.484L818.208 912.736L830.605 901.889L832.155 894.14L838.354 884.843H841.453L844.552 878.644L855.4 869.346L852.3 875.545L846.102 884.843L849.201 886.392L850.751 878.644L860.048 873.995L861.598 869.346L867.797 866.247L873.995 867.797L870.896 872.446V883.293L864.697 886.392L861.598 892.591H856.949V898.789L864.697 900.339L870.896 889.492H875.545V892.591H880.194L883.293 881.743V875.545L891.041 877.094L894.14 869.346L897.24 866.247H903.438L904.988 860.048L909.637 855.4L915.835 853.85L912.736 847.651L915.835 844.552L917.385 838.354L925.133 841.453L929.782 843.002L931.332 832.155L925.133 833.705L923.584 830.605H926.683V827.506L929.782 825.956Z" fill="#F29B39"/>
<path d="M556.32 427.7L562.518 429.249L567.167 432.349V435.448L573.366 438.547L582.663 446.295L584.213 450.944L581.114 455.593H578.014L574.915 461.792L570.266 467.99H567.167V471.09H564.068V474.189H560.968V477.288H557.869V480.387H554.77L551.671 486.586L534.625 503.632L525.327 514.479H522.228L520.678 520.678L509.83 529.976L495.884 528.426L491.235 523.777V520.678H488.136L481.937 512.93L483.487 503.632H486.586L489.685 495.884L500.533 486.586H503.632L506.731 480.387L517.579 467.99L525.327 461.792L536.174 449.395L545.472 436.998L556.32 427.7Z" fill="#F7B059"/>
<path d="M1044.46 529.976H1053.75L1061.5 536.174L1064.6 542.373L1063.05 550.121L1021.21 560.969L974.722 573.366L968.523 571.816L966.973 565.617L1004.16 548.571L1039.81 531.525L1044.46 529.976Z" fill="#E3DBEF"/>
<path d="M988.668 444.746H997.966L1005.71 452.494L1008.81 457.143L1007.26 463.341L988.668 477.288L968.523 491.235L949.927 503.632L937.53 512.93L931.332 509.83V505.182L943.729 492.784L945.279 489.685H948.378V486.586L973.172 461.792L984.019 449.395L988.668 444.746Z" fill="#E3DBEF"/>
<path d="M881.743 379.661L891.041 381.211L898.789 388.959L900.339 398.257L866.247 481.937L860.048 480.387L861.598 463.341L875.545 401.356L880.194 381.211L881.743 379.661Z" fill="#E3DBEF"/>
<path d="M436.998 458.693L440.097 460.242L435.448 466.441L436.998 472.639L443.196 477.288V480.387H446.295V483.487L450.944 485.036V488.136L457.143 489.685L464.891 486.586L461.792 492.785L450.944 502.082L449.395 505.182H446.295L443.196 511.38L440.097 514.479L433.898 512.93L430.799 511.38V508.281H427.7V505.182H424.601V502.082L418.402 498.983L410.654 491.235L413.753 485.036L426.15 471.09L432.349 464.891L436.998 458.693Z" fill="#F6BE56"/>
<path d="M348.668 793.414H371.913L429.249 798.063L433.898 799.613V805.811L409.104 808.91L365.714 813.559H354.867L348.668 807.361V793.414Z" fill="#E3DBEF"/>
<path d="M491.235 904.988H494.334L495.884 911.186L475.739 942.179L457.143 971.622L449.395 982.47L443.196 980.92L440.097 979.37L438.547 974.722V962.324L449.395 951.477L460.242 939.08L463.341 934.431H466.441L469.54 928.232L486.586 909.637L491.235 904.988Z" fill="#E3DBEF"/>
<path d="M435.448 860.048H444.746L446.295 866.247L381.211 898.789L373.462 897.24L368.813 889.492V880.194L384.31 873.995L430.799 861.598L435.448 860.048Z" fill="#E3DBEF"/>
<path d="M598.16 618.305L604.358 624.504V641.55L599.709 652.397H595.061L591.961 649.298V644.649L584.213 643.099L582.663 636.901L590.412 627.603L591.961 622.954H596.61L598.16 618.305Z" fill="#F5BE55"/>
<path d="M846.102 621.404L850.751 626.053L852.3 635.351H849.201L846.102 630.702L838.353 629.153L824.407 633.801L799.613 649.298H794.964L815.109 632.252H818.208L821.307 626.053L832.155 622.954L846.102 621.404Z" fill="#F39A36"/>
<path d="M213.85 427.7L216.949 429.249L203.002 444.746L199.903 449.395H196.804L193.705 455.593L175.109 474.189L172.01 480.387V488.136L181.307 491.235L182.857 494.334L190.605 495.884L198.354 506.731L190.605 503.632L172.01 491.235L168.91 486.586V477.288L179.758 464.891L193.705 450.944L195.254 447.845H198.354L201.453 441.646L213.85 427.7Z" fill="#F6CA86"/>
<path d="M653.947 688.039L657.046 691.138H653.947L650.847 697.337L640 708.184L635.351 715.932H632.252L629.153 723.68L626.053 720.581L622.954 722.131L626.053 714.383L630.702 712.833L632.252 705.085L635.351 700.436L630.702 697.337L641.55 695.787L653.947 688.039Z" fill="#F5AC5D"/>
<path d="M917.385 788.765H922.034L926.683 796.513L920.484 802.712H917.385V807.361L911.186 808.91V812.01L903.438 818.208L898.789 816.659L906.537 807.361L912.736 794.964L917.385 788.765Z" fill="#F29A36"/>
<path d="M892.591 740.726L898.789 742.276L891.041 748.475L873.995 763.971H870.896V767.07L863.148 768.62V763.971L883.293 748.475L892.591 740.726Z" fill="#F39A36"/>
<path d="M199.903 506.731L206.102 509.83L218.499 517.579L215.4 523.777L187.506 551.671V547.022L209.201 525.327L213.85 517.579L206.102 514.479L199.903 509.83V506.731Z" fill="#F5C37C"/>
<path d="M686.489 277.385L688.039 283.584L683.39 294.431V319.225L684.94 325.424L680.291 330.073L678.741 322.324V299.08L683.39 283.584L686.489 277.385Z" fill="#F4BF85"/>
<path d="M787.215 159.613H788.765L790.315 167.361V189.056L787.215 207.651L784.116 210.751V187.506H787.215L785.666 161.162L787.215 159.613Z" fill="#F3B97A"/>
<path d="M891.041 824.407L894.14 825.956L881.743 843.002L873.995 850.751L867.797 853.85L870.896 847.651L881.743 833.705L887.942 825.956L891.041 824.407Z" fill="#F39A36"/>
<path d="M866.247 681.84L867.797 684.939L846.102 701.985L829.056 714.383L825.956 711.283L843.002 698.886L863.148 683.39L866.247 681.84Z" fill="#F39A36"/>
<path d="M477.288 416.852V421.501L455.593 444.746L450.944 452.494L443.196 455.593V452.494H446.295L449.395 446.295L455.593 438.547L461.792 432.349L466.441 430.799L469.54 424.6L477.288 416.852Z" fill="#F6BF56"/>
<path d="M929.782 825.956L931.332 830.605L939.08 832.155H945.278L935.981 843.002L928.232 849.201L931.332 843.002V838.354V832.155L925.133 833.705L923.583 830.605H926.683V827.506L929.782 825.956Z" fill="#F4B353"/>
<path d="M853.85 869.346V873.995L849.201 878.644L841.453 892.591L833.705 898.789H830.605L833.705 892.591L838.354 884.843H841.453L844.552 878.644L853.85 869.346Z" fill="#F39F3B"/>
<path d="M331.622 649.298L334.721 650.847L303.729 681.84L300.629 680.291L323.874 655.496L331.622 649.298Z" fill="#F4C07F"/>
<path d="M516.029 371.913L520.678 373.462L517.579 379.661L509.831 387.409H506.731L503.632 393.608L498.983 399.806H495.884V402.906L489.685 406.005L492.785 399.806L503.632 388.959L508.281 382.76L511.38 381.211L512.93 375.012L516.029 371.913Z" fill="#F6BF56"/>
<path d="M581.114 131.719V136.368L573.366 144.116L562.518 156.513L554.77 164.261L548.571 162.712L550.121 159.613H554.77L573.366 139.467L581.114 131.719Z" fill="#F4BF84"/>
<path d="M917.385 753.123H923.584L926.683 767.07L922.034 768.62V771.719H925.133V774.818L918.935 777.918L917.385 774.818H920.484V771.719H917.385L920.484 762.421L917.385 753.123Z" fill="#F39A36"/>
<path d="M649.298 294.431L657.046 302.179L672.542 322.324L675.642 330.073L667.893 323.874L663.245 316.126L655.496 305.278L650.847 300.63L649.298 294.431Z" fill="#F3B97B"/>
<path d="M653.947 688.039L657.046 691.138H653.947L650.847 697.337L644.649 701.985L630.702 698.886V697.337L641.55 695.787L653.947 688.039Z" fill="#F2AB60"/>
<path d="M319.225 316.126H322.324L319.225 322.324L299.08 342.47L295.981 347.119L292.881 345.569L303.729 333.172L314.576 322.324L319.225 316.126Z" fill="#F4C491"/>
<path d="M481.937 503.632L483.487 506.731L485.036 514.479L488.136 520.678H491.235L495.884 528.426L489.685 525.327L477.288 512.93L478.838 506.731L481.937 503.632Z" fill="#F6BE56"/>
<path d="M923.584 754.673H928.232L929.782 770.169L928.232 773.269L922.034 771.719V768.62L925.133 765.521L923.584 754.673Z" fill="#EFAB76"/>
<path d="M472.639 678.741L481.937 681.84V686.489H472.639V683.39L471.09 684.939H463.341L461.792 680.291H471.09L472.639 678.741Z" fill="#F39D40"/>
<path d="M917.385 838.354L925.133 841.453L923.584 846.102L918.935 852.3L912.736 850.751L915.835 844.552L917.385 838.354Z" fill="#F3A43E"/>
<path d="M559.419 395.157H564.068V407.554L557.869 409.104L556.32 404.455L559.419 395.157Z" fill="#FBDF76"/>
<path d="M345.569 289.782V294.431L330.073 309.927L325.424 316.126H322.324L325.424 309.927L345.569 289.782Z" fill="#F5C88D"/>
<path d="M954.576 815.109H959.225L956.126 821.307L951.477 827.506L943.729 829.056L945.278 822.857L951.477 818.208L954.576 815.109Z" fill="#F3A03E"/>
<path d="M715.932 240.194L719.031 241.743L708.184 255.69L695.787 266.538V261.889L714.383 243.293L715.932 240.194Z" fill="#F2BA88"/>
<path d="M455.593 173.559V178.208L443.196 190.605L436.998 198.354H433.898L436.998 192.155L455.593 173.559Z" fill="#F4C08F"/>
<path d="M247.942 539.274L254.14 540.823L266.537 550.121L272.736 556.32L264.988 553.22L251.041 543.923L244.843 542.373L247.942 539.274Z" fill="#F4C194"/>
<path d="M742.276 210.751L743.826 213.85L742.276 220.048H739.177L736.077 226.247L728.329 233.995L725.23 232.446L739.177 215.4L742.276 210.751Z" fill="#F2B276"/>
<path d="M505.182 701.985L520.678 703.535L536.174 706.634L537.724 709.734L523.777 708.184L505.182 703.535V701.985Z" fill="#F4BD7B"/>
<path d="M199.903 506.731L206.102 509.83L218.499 517.579V520.678L210.751 525.327L213.85 517.579L206.102 514.479L199.903 509.83V506.731Z" fill="#F6C98C"/>
<path d="M658.596 74.3826H666.344L661.695 77.4818L650.848 82.1308L638.45 83.6804L640 80.5811L658.596 74.3826Z" fill="#F3BD7F"/>
<path d="M743.826 91.4286L750.024 94.5279L765.521 108.475L763.971 111.574L753.124 100.726L745.375 96.0775L743.826 91.4286Z" fill="#F2BB8D"/>
<path d="M802.712 931.332L805.811 932.881V953.027H804.262L801.162 937.53V932.881L802.712 931.332Z" fill="#F1B787"/>
<path d="M929.782 825.956L931.332 830.605L937.53 833.705L935.981 838.354L931.332 835.254V832.155L925.133 833.705L923.583 830.605H926.683V827.506L929.782 825.956Z" fill="#F39A36"/>
<path d="M680.291 300.63H681.84L683.39 319.225L684.939 325.424L680.291 330.073V300.63Z" fill="#F0AF6C"/>
</g>
<defs>
<clipPath id="clip0_37_4766">
<rect width="1280" height="1280" fill="white"/>
</clipPath>
</defs>
</svg>
